<?xml version="1.0" encoding="UTF-8"?>
<svg width="40px" height="40px" viewBox="0 0 40 40" xmlns="http://www.w3.org/2000/svg" xmlns:xlink="http://www.w3.org/1999/xlink" version="1.1">
 <!-- Generated by Pixelmator Pro 2.3.3 -->
 <path id="P" d="M36.249 12.725 C36.249 16.188 35.181 18.996 33.046 21.147 30.911 23.299 27.297 24.392 22.204 24.425 L17.211 24.425 17.211 34.259 22.153 34.259 22.153 39 6.721 39 6.721 34.259 11.462 34.259 11.462 5.741 6.721 5.741 6.721 1 20.867 1 C24.683 1 27.713 1.412 29.957 2.236 32.202 3.059 33.811 4.316 34.786 6.005 35.761 7.695 36.249 9.935 36.249 12.725 Z M30.424 12.599 C30.424 10.229 29.726 8.493 28.331 7.392 26.936 6.291 24.549 5.741 21.17 5.741 L17.211 5.741 17.211 19.836 20.766 19.836 C23.103 19.836 24.969 19.622 26.364 19.193 27.76 18.764 28.785 18.025 29.441 16.974 30.096 15.923 30.424 14.465 30.424 12.599 Z" fill="#000000" fill-opacity="1" stroke="none"/>
</svg>
