<svg width="40" height="40" viewBox="0 0 40 40" xmlns="http://www.w3.org/2000/svg" xmlns:xlink="http://www.w3.org/1999/xlink">
    <path id="i" fill="#000000" fill-rule="evenodd" stroke="none" d="M 24.620411 4.618256 C 24.620411 5.450275 24.318605 6.168083 23.714983 6.771702 C 23.111362 7.375324 22.393555 7.677132 21.561537 7.677132 C 20.729519 7.677132 20.019867 7.375324 19.43256 6.771702 C 18.845253 6.168083 18.551605 5.450275 18.551605 4.618256 C 18.551605 3.78624 18.845253 3.068428 19.43256 2.464809 C 20.019867 1.861187 20.729519 1.559383 21.561537 1.559383 C 22.426182 1.559383 23.152147 1.853031 23.739454 2.440338 C 24.326761 3.027645 24.620411 3.753609 24.620411 4.618256 Z M 24.242117 34.497337 L 24.242117 39 L 15.24802 39 L 15.24802 34.497337 L 19.261263 34.497337 L 19.261263 17.808121 L 19.24802 17.808121 L 19.24802 13.280987 L 19.334576 13.280987 L 24.326759 13.280987 L 24.326759 34.497337 Z"/>
</svg>
